<svg xmlns="http://www.w3.org/2000/svg" style="background-color: rgb(255, 255, 255);" width="1129px" height="706px" version="1.1" xmlns:xlink="http://www.w3.org/1999/xlink"><defs><linearGradient id="mx-gradient-fbedce-1-ffdc8c-1-s-0" x1="0%" y1="0%" x2="0%" y2="100%"><stop style="stop-color:#fbedce" offset="0%" /><stop style="stop-color:#ffdc8c" offset="100%" /></linearGradient><linearGradient id="mx-gradient-e6d2f9-1-d4aef9-1-s-0" x1="0%" y1="0%" x2="0%" y2="100%"><stop style="stop-color:#e6d2f9" offset="0%" /><stop style="stop-color:#d4aef9" offset="100%" /></linearGradient><linearGradient id="mx-gradient-eeedd9-1-c5c4b0-1-s-0" x1="0%" y1="0%" x2="0%" y2="100%"><stop style="stop-color:#eeedd9" offset="0%" /><stop style="stop-color:#c5c4b0" offset="100%" /></linearGradient></defs><g transform="translate(0.5 0.5)"><rect fill="#7acff5" pointer-events="none" stroke="#000000" x="101" y="52" width="135" height="63" /><path fill="none" pointer-events="none" stroke="#000000" stroke-miterlimit="10" d="M 101 89.74 L 236 89.74" /><g font-family="Bitter" font-size="12px" font-weight="bold" fill="#000000" text-anchor="middle"><text x="168" y="84">login.php</text></g><rect fill="url(#mx-gradient-fbedce-1-ffdc8c-1-s-0)" pointer-events="none" stroke="#ddab38" x="891" y="259" width="135" height="63" /><path fill="none" pointer-events="none" stroke="#ddab38" stroke-miterlimit="10" d="M 891 296.74 L 1026 296.74" /><g font-family="Bitter" font-size="12px" font-weight="bold" fill="#000000" text-anchor="middle"><text x="958" y="291">blogview.php</text></g><path fill="none" pointer-events="none" stroke="#000000" stroke-miterlimit="10" d="M 32 292.05 L 105.63 292.27" /><path fill="#000000" pointer-events="none" stroke="#000000" stroke-miterlimit="10" d="M 110.88 292.29 L 103.87 295.77 L 105.63 292.27 L 103.89 288.77 Z" /><ellipse fill="#7acff5" pointer-events="none" stroke="none" cx="17" cy="270" rx="7.5" ry="7.5" /><rect fill="#7acff5" fill-opacity="0" pointer-events="none" stroke="none" x="2" y="262" width="30" height="60" /><ellipse fill="none" pointer-events="none" stroke="#000000" cx="17" cy="270" rx="7.5" ry="7.5" /><path fill="none" pointer-events="none" stroke="#000000" stroke-miterlimit="10" d="M 17 277 L 17 302" /><path fill="none" pointer-events="none" stroke="#000000" stroke-miterlimit="10" d="M 2 286 L 32 286" /><path fill="none" pointer-events="none" stroke="#000000" stroke-miterlimit="10" d="M 17 302 L 2 322" /><path fill="none" pointer-events="none" stroke="#000000" stroke-miterlimit="10" d="M 17 302 L 32 322" /><g font-family="Helvetica" font-size="12px" fill="#000000" text-anchor="middle"><text x="16.5" y="340.5">Admin</text></g><rect fill="#7acff5" pointer-events="none" stroke="#000000" x="373" y="283" width="135" height="63" /><path fill="none" pointer-events="none" stroke="#000000" stroke-miterlimit="10" d="M 373 320.74 L 508 320.74" /><g font-family="Bitter" font-size="12px" font-weight="bold" fill="#000000" text-anchor="middle"><text x="440" y="315">logout.php</text></g><rect fill="#7acff5" pointer-events="none" stroke="#000000" x="353" y="52" width="135" height="63" /><path fill="none" pointer-events="none" stroke="#000000" stroke-miterlimit="10" d="M 353 89.74 L 488 89.74" /><g font-family="Bitter" font-size="12px" font-weight="bold" fill="#000000" text-anchor="middle"><text x="420" y="84">register.php</text></g><rect fill="#7acff5" pointer-events="none" stroke="#000000" x="575" y="52" width="135" height="63" /><path fill="none" pointer-events="none" stroke="#000000" stroke-miterlimit="10" d="M 575 89.74 L 710 89.74" /><g font-family="Bitter" font-size="12px" font-weight="bold" fill="#000000" text-anchor="middle"><text x="642" y="84">reset-password.php</text></g><rect fill="url(#mx-gradient-fbedce-1-ffdc8c-1-s-0)" pointer-events="none" stroke="#ddab38" x="112" y="261" width="135" height="63" /><path fill="none" pointer-events="none" stroke="#ddab38" stroke-miterlimit="10" d="M 112 298.74 L 247 298.74" /><g font-family="Bitter" font-size="12px" font-weight="bold" fill="#000000" text-anchor="middle"><text x="179" y="293">index.php</text></g><path fill="none" pointer-events="none" stroke="#000000" stroke-miterlimit="10" d="M 1098 292 L 1062 292 L 1062 291 L 1032.37 291" /><path fill="#000000" pointer-events="none" stroke="#000000" stroke-miterlimit="10" d="M 1027.12 291 L 1034.12 287.5 L 1032.37 291 L 1034.12 294.5 Z" /><ellipse fill="#7acff5" pointer-events="none" stroke="none" cx="1113" cy="270" rx="7.5" ry="7.5" /><rect fill="#7acff5" fill-opacity="0" pointer-events="none" stroke="none" x="1098" y="262" width="30" height="60" /><ellipse fill="none" pointer-events="none" stroke="#000000" cx="1113" cy="270" rx="7.5" ry="7.5" /><path fill="none" pointer-events="none" stroke="#000000" stroke-miterlimit="10" d="M 1113 277 L 1113 302" /><path fill="none" pointer-events="none" stroke="#000000" stroke-miterlimit="10" d="M 1098 286 L 1128 286" /><path fill="none" pointer-events="none" stroke="#000000" stroke-miterlimit="10" d="M 1113 302 L 1098 322" /><path fill="none" pointer-events="none" stroke="#000000" stroke-miterlimit="10" d="M 1113 302 L 1128 322" /><g font-family="Helvetica" font-size="12px" fill="#000000" text-anchor="middle"><text x="1112.5" y="340.5">Actor</text></g><rect fill="url(#mx-gradient-e6d2f9-1-d4aef9-1-s-0)" pointer-events="none" stroke="#9f7ac3" x="247" y="169" width="135" height="63" /><path fill="none" pointer-events="none" stroke="#9f7ac3" stroke-miterlimit="10" d="M 247 206.74 L 382 206.74" /><g font-family="Bitter" font-size="12px" font-weight="bold" fill="#000000" text-anchor="middle"><text x="314" y="201">welkom.php</text></g><path fill="none" pointer-events="none" stroke="#000000" stroke-miterlimit="10" d="M 249.12 83.5 L 353 83.5" /><path fill="none" pointer-events="none" stroke="#000000" stroke-miterlimit="10" d="M 237.12 83.5 L 249.12 77.5 L 249.12 89.5 Z" /><path fill="none" pointer-events="none" stroke="#000000" stroke-miterlimit="10" d="M 169.77 128.1 L 177.64 261" /><path fill="none" pointer-events="none" stroke="#000000" stroke-miterlimit="10" d="M 169.07 116.12 L 175.76 127.74 L 163.79 128.45 Z" /><path fill="none" pointer-events="none" stroke="#000000" stroke-miterlimit="10" d="M 339.88 99 L 236 99" /><path fill="none" pointer-events="none" stroke="#000000" stroke-miterlimit="10" d="M 351.88 99 L 339.88 105 L 339.88 93 Z" /><path fill="none" pointer-events="none" stroke="#000000" stroke-miterlimit="10" d="M 563.38 90.08 L 382 185" /><path fill="none" pointer-events="none" stroke="#000000" stroke-miterlimit="10" d="M 574.01 84.52 L 566.16 95.4 L 560.6 84.77 Z" /><path fill="none" pointer-events="none" stroke="#000000" stroke-miterlimit="10" d="M 169 38.88 L 169 22 Q 169 12 179 12 L 633 12 Q 643 12 643 22 L 643 52" /><path fill="none" pointer-events="none" stroke="#000000" stroke-miterlimit="10" d="M 169 50.88 L 163 38.88 L 175 38.88 Z" /><path fill="none" pointer-events="none" stroke="#000000" stroke-miterlimit="10" d="M 233.88 201 L 212 201 Q 202 201 202 191 L 202 115" /><path fill="none" pointer-events="none" stroke="#000000" stroke-miterlimit="10" d="M 245.88 201 L 233.88 207 L 233.88 195 Z" /><path fill="none" pointer-events="none" stroke="#000000" stroke-miterlimit="10" d="M 260.12 293 L 267.06 293 Q 274 293 274 283 L 274 257 Q 274 247 284 247 L 305 247 Q 315 247 315 239.5 L 315 232" /><path fill="none" pointer-events="none" stroke="#000000" stroke-miterlimit="10" d="M 248.12 293 L 260.12 287 L 260.12 299 Z" /><path fill="none" pointer-events="none" stroke="#000000" stroke-miterlimit="10" d="M 441 269.88 L 441 263.94 Q 441 258 431 258 L 325 258 Q 315 258 315 248 L 315 232" /><path fill="none" pointer-events="none" stroke="#000000" stroke-miterlimit="10" d="M 441 281.88 L 435 269.88 L 447 269.88 Z" /><rect fill="url(#mx-gradient-eeedd9-1-c5c4b0-1-s-0)" pointer-events="none" stroke="#99976b" x="575" y="181" width="175" height="102" /><path fill="none" pointer-events="none" stroke="#99976b" stroke-miterlimit="10" d="M 575 199.24 L 750 199.24" /><g font-family="Bitter" font-size="12px" font-weight="bold" fill="#000000" text-anchor="middle"><text x="662" y="193.5">database</text></g><path fill="none" pointer-events="none" stroke="#000000" stroke-dasharray="5px" stroke-miterlimit="10" d="M 233 115 L 233 133 Q 233 143 243 143 L 523 143 Q 533 143 533 153 L 533 222 Q 533 232 543 232 L 572.76 232" /><path fill="none" pointer-events="none" stroke="#000000" stroke-miterlimit="10" d="M 561.88 238 L 573.88 232 L 561.88 226" /><path fill="none" pointer-events="none" stroke="#000000" stroke-dasharray="5px" stroke-miterlimit="10" d="M 435 115 L 435 140.76" /><path fill="none" pointer-events="none" stroke="#000000" stroke-miterlimit="10" d="M 429 129.88 L 435 141.88 L 441 129.88" /><path fill="none" pointer-events="none" stroke="#000000" stroke-dasharray="5px" stroke-miterlimit="10" d="M 643 115 L 643 138 Q 643 148 653 148 L 658 148 Q 663 148 663 158 L 663 178.76" /><path fill="none" pointer-events="none" stroke="#000000" stroke-miterlimit="10" d="M 657 167.88 L 663 179.88 L 669 167.88" /><rect fill="url(#mx-gradient-e6d2f9-1-d4aef9-1-s-0)" pointer-events="none" stroke="#9f7ac3" x="26" y="503" width="135" height="63" /><path fill="none" pointer-events="none" stroke="#9f7ac3" stroke-miterlimit="10" d="M 26 540.74 L 161 540.74" /><g font-family="Bitter" font-size="12px" font-weight="bold" fill="#000000" text-anchor="middle"><text x="93" y="535">nieuwbericht.php</text></g><rect fill="url(#mx-gradient-e6d2f9-1-d4aef9-1-s-0)" pointer-events="none" stroke="#9f7ac3" x="493" y="503" width="135" height="63" /><path fill="none" pointer-events="none" stroke="#9f7ac3" stroke-miterlimit="10" d="M 493 540.74 L 628 540.74" /><g font-family="Bitter" font-size="12px" font-weight="bold" fill="#000000" text-anchor="middle"><text x="560" y="535">verwijderbericht.php</text></g><rect fill="url(#mx-gradient-e6d2f9-1-d4aef9-1-s-0)" pointer-events="none" stroke="#9f7ac3" x="180" y="503" width="135" height="63" /><path fill="none" pointer-events="none" stroke="#9f7ac3" stroke-miterlimit="10" d="M 180 540.74 L 315 540.74" /><g font-family="Bitter" font-size="12px" font-weight="bold" fill="#000000" text-anchor="middle"><text x="247" y="535">leesbericht.php</text></g><rect fill="url(#mx-gradient-e6d2f9-1-d4aef9-1-s-0)" pointer-events="none" stroke="#9f7ac3" x="333" y="503" width="135" height="63" /><path fill="none" pointer-events="none" stroke="#9f7ac3" stroke-miterlimit="10" d="M 333 540.74 L 468 540.74" /><g font-family="Bitter" font-size="12px" font-weight="bold" fill="#000000" text-anchor="middle"><text x="400" y="535">updatebericht.php</text></g><rect fill="url(#mx-gradient-e6d2f9-1-d4aef9-1-s-0)" pointer-events="none" stroke="#9f7ac3" x="756" y="642" width="135" height="63" /><path fill="none" pointer-events="none" stroke="#9f7ac3" stroke-miterlimit="10" d="M 756 679.74 L 891 679.74" /><g font-family="Bitter" font-size="12px" font-weight="bold" fill="#000000" text-anchor="middle"><text x="823" y="674">error.php</text></g><rect fill="url(#mx-gradient-e6d2f9-1-d4aef9-1-s-0)" pointer-events="none" stroke="#9f7ac3" x="943" y="642" width="135" height="63" /><path fill="none" pointer-events="none" stroke="#9f7ac3" stroke-miterlimit="10" d="M 943 679.74 L 1078 679.74" /><g font-family="Bitter" font-size="12px" font-weight="bold" fill="#000000" text-anchor="middle"><text x="1010" y="674">config.php</text></g><path fill="none" pointer-events="none" stroke="#000000" stroke-miterlimit="10" d="M 94 489.88 L 94 424 Q 94 414 104 414 L 170 414 Q 180 414 180 404 L 180 324" /><path fill="none" pointer-events="none" stroke="#000000" stroke-miterlimit="10" d="M 94 501.88 L 88 489.88 L 100 489.88 Z" /><path fill="none" pointer-events="none" stroke="#000000" stroke-miterlimit="10" d="M 248 489.88 L 248 424 Q 248 414 238 414 L 190 414 Q 180 414 180 404 L 180 324" /><path fill="none" pointer-events="none" stroke="#000000" stroke-miterlimit="10" d="M 248 501.88 L 242 489.88 L 254 489.88 Z" /><path fill="none" pointer-events="none" stroke="#000000" stroke-miterlimit="10" d="M 383 489.88 L 383 403 Q 383 393 373 393 L 190 393 Q 180 393 180 383 L 180 324" /><path fill="none" pointer-events="none" stroke="#000000" stroke-miterlimit="10" d="M 383 501.88 L 377 489.88 L 389 489.88 Z" /><path fill="none" pointer-events="none" stroke="#000000" stroke-miterlimit="10" d="M 561 489.88 L 561 383 Q 561 373 551 373 L 190 373 Q 180 373 180 363 L 180 324" /><path fill="none" pointer-events="none" stroke="#000000" stroke-miterlimit="10" d="M 561 501.88 L 555 489.88 L 567 489.88 Z" /><path fill="none" pointer-events="none" stroke="#000000" stroke-miterlimit="10" d="M 94 579.12 L 94 673 Q 94 683 104 683 L 693 683 Q 703 683 703 673 L 703 283" /><path fill="none" pointer-events="none" stroke="#000000" stroke-miterlimit="10" d="M 94 567.12 L 100 579.12 L 88 579.12 Z" /><path fill="none" pointer-events="none" stroke="#000000" stroke-miterlimit="10" d="M 248 579.12 L 248 633 Q 248 643 258 643 L 703 643 Q 713 643 713 633 L 713 283" /><path fill="none" pointer-events="none" stroke="#000000" stroke-miterlimit="10" d="M 248 567.12 L 254 579.12 L 242 579.12 Z" /><path fill="none" pointer-events="none" stroke="#000000" stroke-miterlimit="10" d="M 401 579.12 L 401 613 Q 401 623 411 623 L 673 623 Q 683 623 683 613 L 683 283" /><path fill="none" pointer-events="none" stroke="#000000" stroke-miterlimit="10" d="M 401 567.12 L 407 579.12 L 395 579.12 Z" /><path fill="none" pointer-events="none" stroke="#000000" stroke-miterlimit="10" d="M 641.12 535 L 647.06 535 Q 653 535 653 525 L 653 283" /><path fill="none" pointer-events="none" stroke="#000000" stroke-miterlimit="10" d="M 629.12 535 L 641.12 529 L 641.12 541 Z" /><path fill="none" pointer-events="none" stroke="#000000" stroke-miterlimit="10" d="M 877.88 291 L 831 291 Q 821 291 821 281 L 821 242 Q 821 232 811 232 L 750 232" /><path fill="none" pointer-events="none" stroke="#000000" stroke-miterlimit="10" d="M 889.88 291 L 877.88 297 L 877.88 285 Z" /><path fill="none" pointer-events="none" stroke="#000000" stroke-miterlimit="10" d="M 249.12 83.5 L 353 83.5" /><path fill="none" pointer-events="none" stroke="#000000" stroke-miterlimit="10" d="M 237.12 83.5 L 249.12 77.5 L 249.12 89.5 Z" /><path fill="none" pointer-events="none" stroke="#000000" stroke-miterlimit="10" d="M 169.77 128.1 L 177.64 261" /><path fill="none" pointer-events="none" stroke="#000000" stroke-miterlimit="10" d="M 169.07 116.12 L 175.76 127.74 L 163.79 128.45 Z" /><path fill="none" pointer-events="none" stroke="#000000" stroke-miterlimit="10" d="M 339.88 99 L 236 99" /><path fill="none" pointer-events="none" stroke="#000000" stroke-miterlimit="10" d="M 351.88 99 L 339.88 105 L 339.88 93 Z" /><path fill="none" pointer-events="none" stroke="#000000" stroke-miterlimit="10" d="M 169 38.88 L 169 22 Q 169 12 179 12 L 633 12 Q 643 12 643 22 L 643 52" /><path fill="none" pointer-events="none" stroke="#000000" stroke-miterlimit="10" d="M 169 50.88 L 163 38.88 L 175 38.88 Z" /><path fill="none" pointer-events="none" stroke="#000000" stroke-miterlimit="10" d="M 233.88 201 L 212 201 Q 202 201 202 191 L 202 115" /><path fill="none" pointer-events="none" stroke="#000000" stroke-miterlimit="10" d="M 245.88 201 L 233.88 207 L 233.88 195 Z" /><path fill="none" pointer-events="none" stroke="#000000" stroke-dasharray="5px" stroke-miterlimit="10" d="M 233 115 L 233 133 Q 233 143 243 143 L 523 143 Q 533 143 533 153 L 533 222 Q 533 232 543 232 L 572.76 232" /><path fill="none" pointer-events="none" stroke="#000000" stroke-miterlimit="10" d="M 561.88 238 L 573.88 232 L 561.88 226" /><path fill="none" pointer-events="none" stroke="#000000" stroke-miterlimit="10" d="M 877.88 291 L 831 291 Q 821 291 821 281 L 821 242 Q 821 232 811 232 L 750 232" /><path fill="none" pointer-events="none" stroke="#000000" stroke-miterlimit="10" d="M 889.88 291 L 877.88 297 L 877.88 285 Z" /><path fill="none" pointer-events="none" stroke="#000000" stroke-miterlimit="10" d="M 1098 292 L 1062 292 L 1062 291 L 1032.37 291" /><path fill="#000000" pointer-events="none" stroke="#000000" stroke-miterlimit="10" d="M 1027.12 291 L 1034.12 287.5 L 1032.37 291 L 1034.12 294.5 Z" /><path fill="none" pointer-events="none" stroke="#000000" stroke-miterlimit="10" d="M 32 292.05 L 105.63 292.27" /><path fill="#000000" pointer-events="none" stroke="#000000" stroke-miterlimit="10" d="M 110.88 292.29 L 103.87 295.77 L 105.63 292.27 L 103.89 288.77 Z" /><path fill="none" pointer-events="none" stroke="#000000" stroke-miterlimit="10" d="M 441 269.88 L 441 263.94 Q 441 258 431 258 L 325 258 Q 315 258 315 248 L 315 232" /><path fill="none" pointer-events="none" stroke="#000000" stroke-miterlimit="10" d="M 441 281.88 L 435 269.88 L 447 269.88 Z" /><path fill="none" pointer-events="none" stroke="#000000" stroke-miterlimit="10" d="M 249.12 83.5 L 353 83.5" /><path fill="none" pointer-events="none" stroke="#000000" stroke-miterlimit="10" d="M 237.12 83.5 L 249.12 77.5 L 249.12 89.5 Z" /><path fill="none" pointer-events="none" stroke="#000000" stroke-miterlimit="10" d="M 339.88 99 L 236 99" /><path fill="none" pointer-events="none" stroke="#000000" stroke-miterlimit="10" d="M 351.88 99 L 339.88 105 L 339.88 93 Z" /><path fill="none" pointer-events="none" stroke="#000000" stroke-dasharray="5px" stroke-miterlimit="10" d="M 435 115 L 435 140.76" /><path fill="none" pointer-events="none" stroke="#000000" stroke-miterlimit="10" d="M 429 129.88 L 435 141.88 L 441 129.88" /><path fill="none" pointer-events="none" stroke="#000000" stroke-miterlimit="10" d="M 563.38 90.08 L 382 185" /><path fill="none" pointer-events="none" stroke="#000000" stroke-miterlimit="10" d="M 574.01 84.52 L 566.16 95.4 L 560.6 84.77 Z" /><path fill="none" pointer-events="none" stroke="#000000" stroke-miterlimit="10" d="M 169 38.88 L 169 22 Q 169 12 179 12 L 633 12 Q 643 12 643 22 L 643 52" /><path fill="none" pointer-events="none" stroke="#000000" stroke-miterlimit="10" d="M 169 50.88 L 163 38.88 L 175 38.88 Z" /><path fill="none" pointer-events="none" stroke="#000000" stroke-dasharray="5px" stroke-miterlimit="10" d="M 643 115 L 643 138 Q 643 148 653 148 L 658 148 Q 663 148 663 158 L 663 178.76" /><path fill="none" pointer-events="none" stroke="#000000" stroke-miterlimit="10" d="M 657 167.88 L 663 179.88 L 669 167.88" /><path fill="none" pointer-events="none" stroke="#000000" stroke-miterlimit="10" d="M 32 292.05 L 105.63 292.27" /><path fill="#000000" pointer-events="none" stroke="#000000" stroke-miterlimit="10" d="M 110.88 292.29 L 103.87 295.77 L 105.63 292.27 L 103.89 288.77 Z" /><path fill="none" pointer-events="none" stroke="#000000" stroke-miterlimit="10" d="M 169.77 128.1 L 177.64 261" /><path fill="none" pointer-events="none" stroke="#000000" stroke-miterlimit="10" d="M 169.07 116.12 L 175.76 127.74 L 163.79 128.45 Z" /><path fill="none" pointer-events="none" stroke="#000000" stroke-miterlimit="10" d="M 260.12 293 L 267.06 293 Q 274 293 274 283 L 274 257 Q 274 247 284 247 L 305 247 Q 315 247 315 239.5 L 315 232" /><path fill="none" pointer-events="none" stroke="#000000" stroke-miterlimit="10" d="M 248.12 293 L 260.12 287 L 260.12 299 Z" /><path fill="none" pointer-events="none" stroke="#000000" stroke-miterlimit="10" d="M 94 489.88 L 94 424 Q 94 414 104 414 L 170 414 Q 180 414 180 404 L 180 324" /><path fill="none" pointer-events="none" stroke="#000000" stroke-miterlimit="10" d="M 94 501.88 L 88 489.88 L 100 489.88 Z" /><path fill="none" pointer-events="none" stroke="#000000" stroke-miterlimit="10" d="M 248 489.88 L 248 424 Q 248 414 238 414 L 190 414 Q 180 414 180 404 L 180 324" /><path fill="none" pointer-events="none" stroke="#000000" stroke-miterlimit="10" d="M 248 501.88 L 242 489.88 L 254 489.88 Z" /><path fill="none" pointer-events="none" stroke="#000000" stroke-miterlimit="10" d="M 383 489.88 L 383 403 Q 383 393 373 393 L 190 393 Q 180 393 180 383 L 180 324" /><path fill="none" pointer-events="none" stroke="#000000" stroke-miterlimit="10" d="M 383 501.88 L 377 489.88 L 389 489.88 Z" /><path fill="none" pointer-events="none" stroke="#000000" stroke-miterlimit="10" d="M 561 489.88 L 561 383 Q 561 373 551 373 L 190 373 Q 180 373 180 363 L 180 324" /><path fill="none" pointer-events="none" stroke="#000000" stroke-miterlimit="10" d="M 561 501.88 L 555 489.88 L 567 489.88 Z" /><path fill="none" pointer-events="none" stroke="#000000" stroke-miterlimit="10" d="M 1098 292 L 1062 292 L 1062 291 L 1032.37 291" /><path fill="#000000" pointer-events="none" stroke="#000000" stroke-miterlimit="10" d="M 1027.12 291 L 1034.12 287.5 L 1032.37 291 L 1034.12 294.5 Z" /><path fill="none" pointer-events="none" stroke="#000000" stroke-miterlimit="10" d="M 563.38 90.08 L 382 185" /><path fill="none" pointer-events="none" stroke="#000000" stroke-miterlimit="10" d="M 574.01 84.52 L 566.16 95.4 L 560.6 84.77 Z" /><path fill="none" pointer-events="none" stroke="#000000" stroke-miterlimit="10" d="M 233.88 201 L 212 201 Q 202 201 202 191 L 202 115" /><path fill="none" pointer-events="none" stroke="#000000" stroke-miterlimit="10" d="M 245.88 201 L 233.88 207 L 233.88 195 Z" /><path fill="none" pointer-events="none" stroke="#000000" stroke-miterlimit="10" d="M 260.12 293 L 267.06 293 Q 274 293 274 283 L 274 257 Q 274 247 284 247 L 305 247 Q 315 247 315 239.5 L 315 232" /><path fill="none" pointer-events="none" stroke="#000000" stroke-miterlimit="10" d="M 248.12 293 L 260.12 287 L 260.12 299 Z" /><path fill="none" pointer-events="none" stroke="#000000" stroke-miterlimit="10" d="M 441 269.88 L 441 263.94 Q 441 258 431 258 L 325 258 Q 315 258 315 248 L 315 232" /><path fill="none" pointer-events="none" stroke="#000000" stroke-miterlimit="10" d="M 441 281.88 L 435 269.88 L 447 269.88 Z" /><path fill="none" pointer-events="none" stroke="#000000" stroke-dasharray="5px" stroke-miterlimit="10" d="M 233 115 L 233 133 Q 233 143 243 143 L 523 143 Q 533 143 533 153 L 533 222 Q 533 232 543 232 L 572.76 232" /><path fill="none" pointer-events="none" stroke="#000000" stroke-miterlimit="10" d="M 561.88 238 L 573.88 232 L 561.88 226" /><path fill="none" pointer-events="none" stroke="#000000" stroke-dasharray="5px" stroke-miterlimit="10" d="M 643 115 L 643 138 Q 643 148 653 148 L 658 148 Q 663 148 663 158 L 663 178.76" /><path fill="none" pointer-events="none" stroke="#000000" stroke-miterlimit="10" d="M 657 167.88 L 663 179.88 L 669 167.88" /><path fill="none" pointer-events="none" stroke="#000000" stroke-miterlimit="10" d="M 248 579.12 L 248 633 Q 248 643 258 643 L 703 643 Q 713 643 713 633 L 713 283" /><path fill="none" pointer-events="none" stroke="#000000" stroke-miterlimit="10" d="M 248 567.12 L 254 579.12 L 242 579.12 Z" /><path fill="none" pointer-events="none" stroke="#000000" stroke-miterlimit="10" d="M 641.12 535 L 647.06 535 Q 653 535 653 525 L 653 283" /><path fill="none" pointer-events="none" stroke="#000000" stroke-miterlimit="10" d="M 629.12 535 L 641.12 529 L 641.12 541 Z" /><path fill="none" pointer-events="none" stroke="#000000" stroke-miterlimit="10" d="M 401 579.12 L 401 613 Q 401 623 411 623 L 673 623 Q 683 623 683 613 L 683 283" /><path fill="none" pointer-events="none" stroke="#000000" stroke-miterlimit="10" d="M 401 567.12 L 407 579.12 L 395 579.12 Z" /><path fill="none" pointer-events="none" stroke="#000000" stroke-miterlimit="10" d="M 94 579.12 L 94 673 Q 94 683 104 683 L 693 683 Q 703 683 703 673 L 703 283" /><path fill="none" pointer-events="none" stroke="#000000" stroke-miterlimit="10" d="M 94 567.12 L 100 579.12 L 88 579.12 Z" /><path fill="none" pointer-events="none" stroke="#000000" stroke-miterlimit="10" d="M 877.88 291 L 831 291 Q 821 291 821 281 L 821 242 Q 821 232 811 232 L 750 232" /><path fill="none" pointer-events="none" stroke="#000000" stroke-miterlimit="10" d="M 889.88 291 L 877.88 297 L 877.88 285 Z" /><path fill="none" pointer-events="none" stroke="#000000" stroke-dasharray="5px" stroke-miterlimit="10" d="M 435 115 L 435 140.76" /><path fill="none" pointer-events="none" stroke="#000000" stroke-miterlimit="10" d="M 429 129.88 L 435 141.88 L 441 129.88" /><path fill="none" pointer-events="none" stroke="#000000" stroke-miterlimit="10" d="M 94 489.88 L 94 424 Q 94 414 104 414 L 170 414 Q 180 414 180 404 L 180 324" /><path fill="none" pointer-events="none" stroke="#000000" stroke-miterlimit="10" d="M 94 501.88 L 88 489.88 L 100 489.88 Z" /><path fill="none" pointer-events="none" stroke="#000000" stroke-miterlimit="10" d="M 94 579.12 L 94 673 Q 94 683 104 683 L 693 683 Q 703 683 703 673 L 703 283" /><path fill="none" pointer-events="none" stroke="#000000" stroke-miterlimit="10" d="M 94 567.12 L 100 579.12 L 88 579.12 Z" /><path fill="none" pointer-events="none" stroke="#000000" stroke-miterlimit="10" d="M 561 489.88 L 561 383 Q 561 373 551 373 L 190 373 Q 180 373 180 363 L 180 324" /><path fill="none" pointer-events="none" stroke="#000000" stroke-miterlimit="10" d="M 561 501.88 L 555 489.88 L 567 489.88 Z" /><path fill="none" pointer-events="none" stroke="#000000" stroke-miterlimit="10" d="M 641.12 535 L 647.06 535 Q 653 535 653 525 L 653 283" /><path fill="none" pointer-events="none" stroke="#000000" stroke-miterlimit="10" d="M 629.12 535 L 641.12 529 L 641.12 541 Z" /><path fill="none" pointer-events="none" stroke="#000000" stroke-miterlimit="10" d="M 248 489.88 L 248 424 Q 248 414 238 414 L 190 414 Q 180 414 180 404 L 180 324" /><path fill="none" pointer-events="none" stroke="#000000" stroke-miterlimit="10" d="M 248 501.88 L 242 489.88 L 254 489.88 Z" /><path fill="none" pointer-events="none" stroke="#000000" stroke-miterlimit="10" d="M 248 579.12 L 248 633 Q 248 643 258 643 L 703 643 Q 713 643 713 633 L 713 283" /><path fill="none" pointer-events="none" stroke="#000000" stroke-miterlimit="10" d="M 248 567.12 L 254 579.12 L 242 579.12 Z" /><path fill="none" pointer-events="none" stroke="#000000" stroke-miterlimit="10" d="M 383 489.88 L 383 403 Q 383 393 373 393 L 190 393 Q 180 393 180 383 L 180 324" /><path fill="none" pointer-events="none" stroke="#000000" stroke-miterlimit="10" d="M 383 501.88 L 377 489.88 L 389 489.88 Z" /><path fill="none" pointer-events="none" stroke="#000000" stroke-miterlimit="10" d="M 401 579.12 L 401 613 Q 401 623 411 623 L 673 623 Q 683 623 683 613 L 683 283" /><path fill="none" pointer-events="none" stroke="#000000" stroke-miterlimit="10" d="M 401 567.12 L 407 579.12 L 395 579.12 Z" /></g></svg>